<svg width="28" height="28" viewBox="0 0 28 28" fill="none" stroke="black" xmlns="http://www.w3.org/2000/svg">
<path fill-rule="evenodd" clip-rule="evenodd" d="M24 8.96193C20.1204 8.55216 16.5259 6.65054 14 3.62405C11.4741 6.65054 7.87963 8.55216 4 8.96193V13.1489C4 17.8127 6.91766 21.9783 11.3007 23.5721L14 24.5537L16.6993 23.5721C21.0823 21.9783 24 17.8127 24 13.1489V8.96193ZM2.414 7.04542C2.18535 7.04542 2 7.23077 2 7.45942V13.1489C2 18.6537 5.44379 23.5704 10.6172 25.4517L13.6583 26.5575C13.879 26.6378 14.121 26.6378 14.3417 26.5575L17.3828 25.4517C22.5562 23.5704 26 18.6537 26 13.1489V7.45942C26 7.23077 25.8146 7.04542 25.586 7.04542C21.7009 7.04542 18.0165 5.31974 15.5293 2.33511L14.7682 1.42183C14.3684 0.942073 13.6316 0.942073 13.2318 1.42183L12.4707 2.3351C9.98352 5.31973 6.29912 7.04542 2.414 7.04542ZM10 15V19H18V15H10ZM9 13C8.44772 13 8 13.4477 8 14V19C8 20.1045 8.89543 21 10 21H18C19.1046 21 20 20.1045 20 19V14C20 13.4477 19.5523 13 19 13H18V11C18 8.79082 16.2091 6.99996 14 6.99996C11.7909 6.99996 10 8.79082 10 11V13H9ZM12 13H16V11C16 9.89539 15.1046 8.99996 14 8.99996C12.8954 8.99996 12 9.89539 12 11V13Z" fill="black"/>
</svg>
