<svg width="60" height="60" viewBox="0 0 60 60" fill="none" xmlns="http://www.w3.org/2000/svg">
<path opacity="0.75" d="M33.5 40L37.2333 42.5151C37.5529 42.7304 37.9856 42.5185 38.0115 42.1341L38.4535 35.5863C38.4675 35.3778 38.6098 35.2 38.8101 35.1406L45.1467 33.2602C45.5207 33.1492 45.6292 32.6716 45.3397 32.4099L40.4595 27.9974C40.3037 27.8565 40.2526 27.6332 40.3315 27.4386L42.7956 21.3652C42.9419 21.0048 42.6387 20.6228 42.2546 20.6833L35.7124 21.7133C35.5074 21.7456 35.3037 21.6479 35.2007 21.4677L31.934 15.7585C31.742 15.4229 31.258 15.4229 31.066 15.7585L27.7993 21.4677C27.6963 21.6479 27.4926 21.7456 27.2876 21.7133L20.7454 20.6833C20.3613 20.6228 20.0581 21.0048 20.2044 21.3652L22.6685 27.4386C22.7474 27.6332 22.6963 27.8565 22.5405 27.9974L17.7394 32.3384C17.4342 32.6143 17.5743 33.1202 17.978 33.1998L19.5 33.5" stroke="#FF4530" stroke-width="2" stroke-linecap="round" stroke-linejoin="round"/>
<path d="M14.1406 37.5001C12.1289 34.1727 11 30.3099 11 26.2574V16.7074C11 16.3168 11.3166 16.0001 11.7073 16.0001C18.3443 16.0001 24.6385 13.1 28.8875 8.08418L30.737 5.90087C31.1364 5.42936 31.8636 5.42936 32.263 5.90087L34.1125 8.08418C38.3615 13.1 44.6557 16.0001 51.2927 16.0001C51.6834 16.0001 52 16.3168 52 16.7074V26.2574C52 35.5085 46.1168 43.7713 37.279 46.9328L31.8368 48.8796C31.619 48.9575 31.381 48.9575 31.1632 48.8796L26.5 47.2115" stroke="#938FEE" stroke-width="2" stroke-linecap="round"/>
<path d="M20.2351 48.536L31.215 37.5562C31.4345 37.3366 31.5999 37.069 31.6981 36.7744L33.1123 32.5318C33.6335 30.9683 32.146 29.4808 30.5825 30.002L26.3399 31.4162C26.0453 31.5144 25.7777 31.6798 25.5581 31.8993L14.5783 42.8792" stroke="#5B9DDE" stroke-width="2"/>
<path d="M10.334 38.6366L24.4761 52.7787" stroke="#083386" stroke-width="2" stroke-linecap="round"/>
<path d="M14.7793 44.1938L19.0219 48.4365L13.3651 54.0933C12.584 54.8744 11.3177 54.8744 10.5367 54.0933L9.12244 52.6791C8.34139 51.8981 8.34139 50.6318 9.12244 49.8507L14.7793 44.1938Z" fill="#083386"/>
</svg>
